<svg width="379" height="402" viewBox="0 0 379 402" fill="none" xmlns="http://www.w3.org/2000/svg">
<g opacity="0.21" filter="url(#filter0_d_1103_112)">
<path fill-rule="evenodd" clip-rule="evenodd" d="M190.634 88.0376C196.242 83.5765 204.196 83.5951 209.783 88.0823L270.974 137.228C277.571 142.527 278.621 152.166 273.317 158.758C268.014 165.349 258.367 166.398 251.77 161.099L200.135 119.628L148.307 160.857C141.685 166.125 132.043 165.032 126.77 158.416C121.498 151.799 122.592 142.165 129.214 136.897L190.634 88.0376ZM150.529 176.82C158.993 176.84 165.839 183.712 165.819 192.17L165.754 220.319C165.749 222.434 167.46 224.152 169.576 224.157L225.924 224.288C228.04 224.293 229.759 222.583 229.764 220.469L229.83 192.319C229.85 183.862 236.727 177.022 245.192 177.042C253.656 177.061 260.502 183.933 260.483 192.391L260.417 220.54C260.372 239.569 244.897 254.959 225.852 254.915L169.505 254.783C150.46 254.739 135.056 239.277 135.101 220.248L135.167 192.098C135.186 183.641 142.064 176.801 150.529 176.82Z" fill="black"/>
<path fill-rule="evenodd" clip-rule="evenodd" d="M106 325.105C133.011 342.109 164.978 351.979 199.257 352.059C296.431 352.285 375.391 273.762 375.618 176.67C375.845 79.577 297.253 0.684864 200.078 0.45798C102.903 0.231095 23.9439 78.7546 23.7172 175.847C23.6203 217.34 37.9186 255.51 61.9105 285.636L9.97049 347.616C-0.517992 360.132 1.13427 378.774 13.6609 389.253C26.1876 399.733 44.845 398.082 55.3335 385.566L106 325.105ZM73.989 175.965C74.1509 106.614 130.55 50.525 199.961 50.687C269.371 50.8491 325.508 107.201 325.346 176.552C325.184 245.904 268.785 301.993 199.374 301.83C129.964 301.668 73.8271 245.317 73.989 175.965Z" fill="#B5FFF2"/>
</g>
<defs>
<filter id="filter0_d_1103_112" x="0.232985" y="0.457489" width="378.222" height="401.364" filterUnits="userSpaceOnUse" color-interpolation-filters="sRGB">
<feFlood flood-opacity="0" result="BackgroundImageFix"/>
<feColorMatrix in="SourceAlpha" type="matrix" values="0 0 0 0 0 0 0 0 0 0 0 0 0 0 0 0 0 0 127 0" result="hardAlpha"/>
<feOffset dy="2.83611"/>
<feGaussianBlur stdDeviation="1.41805"/>
<feComposite in2="hardAlpha" operator="out"/>
<feColorMatrix type="matrix" values="0 0 0 0 0 0 0 0 0 0 0 0 0 0 0 0 0 0 0.25 0"/>
<feBlend mode="normal" in2="BackgroundImageFix" result="effect1_dropShadow_1103_112"/>
<feBlend mode="normal" in="SourceGraphic" in2="effect1_dropShadow_1103_112" result="shape"/>
</filter>
</defs>
</svg>
