<?xml version="1.0" encoding="UTF-8"?> <svg xmlns="http://www.w3.org/2000/svg" width="302" height="89" viewBox="0 0 302 89" fill="none"><path d="M104.912 34.24C106.192 32.2773 107.792 30.7413 109.712 29.632C111.632 28.48 113.765 27.904 116.112 27.904V39.488H113.104C110.373 39.488 108.325 40.0853 106.96 41.28C105.595 42.432 104.912 44.48 104.912 47.424V64H93.968V28.288H104.912V34.24ZM154.367 45.568C154.367 46.592 154.303 47.6587 154.175 48.768H129.407C129.578 50.9867 130.282 52.6933 131.519 53.888C132.799 55.04 134.356 55.616 136.191 55.616C138.922 55.616 140.82 54.464 141.887 52.16H153.535C152.938 54.5067 151.85 56.6187 150.271 58.496C148.735 60.3733 146.794 61.8453 144.447 62.912C142.1 63.9787 139.476 64.512 136.575 64.512C133.076 64.512 129.962 63.7653 127.231 62.272C124.5 60.7787 122.367 58.6453 120.831 55.872C119.295 53.0987 118.527 49.856 118.527 46.144C118.527 42.432 119.274 39.1893 120.767 36.416C122.303 33.6427 124.436 31.5093 127.167 30.016C129.898 28.5227 133.034 27.776 136.575 27.776C140.031 27.776 143.103 28.5013 145.791 29.952C148.479 31.4027 150.57 33.472 152.063 36.16C153.599 38.848 154.367 41.984 154.367 45.568ZM143.167 42.688C143.167 40.8107 142.527 39.3173 141.247 38.208C139.967 37.0987 138.367 36.544 136.447 36.544C134.612 36.544 133.055 37.0773 131.775 38.144C130.538 39.2107 129.77 40.7253 129.471 42.688H143.167ZM230.15 45.568C230.15 46.592 230.086 47.6587 229.958 48.768H205.19C205.36 50.9867 206.064 52.6933 207.302 53.888C208.582 55.04 210.139 55.616 211.974 55.616C214.704 55.616 216.603 54.464 217.67 52.16H229.318C228.72 54.5067 227.632 56.6187 226.054 58.496C224.518 60.3733 222.576 61.8453 220.23 62.912C217.883 63.9787 215.259 64.512 212.358 64.512C208.859 64.512 205.744 63.7653 203.014 62.272C200.283 60.7787 198.15 58.6453 196.614 55.872C195.078 53.0987 194.31 49.856 194.31 46.144C194.31 42.432 195.056 39.1893 196.55 36.416C198.086 33.6427 200.219 31.5093 202.95 30.016C205.68 28.5227 208.816 27.776 212.358 27.776C215.814 27.776 218.886 28.5013 221.574 29.952C224.262 31.4027 226.352 33.472 227.846 36.16C229.382 38.848 230.15 41.984 230.15 45.568ZM218.95 42.688C218.95 40.8107 218.31 39.3173 217.03 38.208C215.75 37.0987 214.15 36.544 212.23 36.544C210.395 36.544 208.838 37.0773 207.558 38.144C206.32 39.2107 205.552 40.7253 205.254 42.688H218.95ZM246.227 34.24C247.507 32.2773 249.107 30.7413 251.027 29.632C252.947 28.48 255.08 27.904 257.427 27.904V39.488H254.419C251.688 39.488 249.64 40.0853 248.275 41.28C246.91 42.432 246.227 44.48 246.227 47.424V64H235.283V28.288H246.227V34.24ZM259.842 46.08C259.842 42.4107 260.525 39.1893 261.89 36.416C263.298 33.6427 265.197 31.5093 267.586 30.016C269.975 28.5227 272.642 27.776 275.586 27.776C278.103 27.776 280.301 28.288 282.178 29.312C284.098 30.336 285.57 31.68 286.594 33.344V28.288H297.538V64H286.594V58.944C285.527 60.608 284.034 61.952 282.114 62.976C280.237 64 278.039 64.512 275.522 64.512C272.621 64.512 269.975 63.7653 267.586 62.272C265.197 60.736 263.298 58.5813 261.89 55.808C260.525 52.992 259.842 49.7493 259.842 46.08ZM286.594 46.144C286.594 43.4133 285.826 41.2587 284.29 39.68C282.797 38.1013 280.962 37.312 278.786 37.312C276.61 37.312 274.754 38.1013 273.218 39.68C271.725 41.216 270.978 43.3493 270.978 46.08C270.978 48.8107 271.725 50.9867 273.218 52.608C274.754 54.1867 276.61 54.976 278.786 54.976C280.962 54.976 282.797 54.1867 284.29 52.608C285.826 51.0293 286.594 48.8747 286.594 46.144Z" fill="black"></path><path d="M180.621 64L173.773 54.08L168.013 64H156.173L167.949 45.76L155.853 28.288H168.141L174.989 38.144L180.749 28.288H192.589L180.621 46.272L192.909 64H180.621Z" fill="#28B79D"></path><g clip-path="url(#clip0_31_64)"><path fill-rule="evenodd" clip-rule="evenodd" d="M38.6233 26.2203C39.719 25.3406 41.2759 25.3406 42.3715 26.2203L54.3715 35.8547C55.6653 36.8934 55.8751 38.7881 54.84 40.0865C53.805 41.3849 51.9171 41.5955 50.6233 40.5567L40.4974 32.4269L30.3715 40.5567C29.0777 41.5955 27.1898 41.3849 26.1548 40.0865C25.1198 38.7881 25.3296 36.8934 26.6233 35.8547L38.6233 26.2203ZM30.8137 43.6942C32.4706 43.6942 33.8137 45.0421 33.8137 46.7049V52.2394C33.8137 52.6551 34.1495 52.9921 34.5637 52.9921H45.5931C46.0073 52.9921 46.3431 52.6551 46.3431 52.2394V46.7049C46.3431 45.0421 47.6863 43.6942 49.3431 43.6942C51 43.6942 52.3431 45.0421 52.3431 46.7049V52.2394C52.3431 55.9807 49.321 59.0136 45.5931 59.0136H34.5637C30.8358 59.0136 27.8137 55.9807 27.8137 52.2394V46.7049C27.8137 45.0421 29.1569 43.6942 30.8137 43.6942Z" fill="black"></path><path fill-rule="evenodd" clip-rule="evenodd" d="M22.1692 72.8698C27.4646 76.2016 33.7273 78.128 40.4383 78.128C59.4593 78.128 74.879 62.6534 74.879 43.5641C74.879 24.4748 59.4595 9 40.4383 9C21.4172 9 5.9977 24.4746 5.9977 43.5639C5.9977 51.7207 8.81308 59.2176 13.5218 65.1292L3.3818 77.3408C1.3345 79.8064 1.66644 83.4707 4.12319 85.5253C6.57994 87.58 10.2312 87.2468 12.2785 84.7813L22.1692 72.8698ZM15.8379 43.5641C15.8379 29.9289 26.8518 18.8755 40.4383 18.8755C54.0247 18.8755 65.0387 29.9289 65.0387 43.5641C65.0387 57.1993 54.0248 68.2527 40.4383 68.2527C26.8518 68.2527 15.8379 57.1993 15.8379 43.5641Z" fill="#28B79D"></path></g><defs><clipPath id="clip0_31_64"><rect width="75" height="79.0323" fill="white" transform="translate(0 9)"></rect></clipPath></defs></svg> 